PathFileType	4	(X/Y/Z)	c:/Users/goper/Files/vsCode/490R/osim_files/A01/A01_Fast_01.trc
DataRate	CameraRate	NumFrames	NumMarkers	Units                	OrigDataRate	OrigDataStartFrame	OrigNumFrames
120.00	120.00	8	36	mm	120.0	864	1381
                Frame#	Time	LPSIS			LASIS			LTH1			LTH2			LTH3			LTH4			LLFE			LMFE			LSH1			LSH2			LSH3			LSH4			LLMAL			LMMAL			LCAL			LMTP5			LTOE			LMTP1			RPSIS			RASIS			RTH1			RTH2			RTH3			RTH4			RLFE			RMFE			RSH1			RSH2			RSH3			RSH4			RLMAL			RMMAL			RCAL			RMTP1			RTOE			RMTP5		
		X1	Y1	Z1	X2	Y2	Z2	X3	Y3	Z3	X4	Y4	Z4	X5	Y5	Z5	X6	Y6	Z6	X7	Y7	Z7	X8	Y8	Z8	X9	Y9	Z9	X10	Y10	Z10	X11	Y11	Z11	X12	Y12	Z12	X13	Y13	Z13	X14	Y14	Z14	X15	Y15	Z15	X16	Y16	Z16	X17	Y17	Z17	X18	Y18	Z18	X19	Y19	Z19	X20	Y20	Z20	X21	Y21	Z21	X22	Y22	Z22	X23	Y23	Z23	X24	Y24	Z24	X25	Y25	Z25	X26	Y26	Z26	X27	Y27	Z27	X28	Y28	Z28	X29	Y29	Z29	X30	Y30	Z30	X31	Y31	Z31	X32	Y32	Z32	X33	Y33	Z33	X34	Y34	Z34	X35	Y35	Z35	X36	Y36	Z36

864	7.19167	-1392.41479	1057.94055	396.33749	-1638.64417	1029.18164	466.91266	-1537.41931	699.07806	529.22461	-1548.18848	653.23517	519.51953	-1597.68555	707.39929	526.25964	-1599.04541	662.72729	513.73956	-1584.16541	540.46411	480.19571	-1591.08777	549.49890	341.69601	-1530.99072	381.30084	468.29919	-1526.43640	333.66953	469.95395	-1592.01990	370.31354	461.54526	-1578.95081	326.16098	462.78650	-1515.83960	90.27823	443.20163	-1499.94849	90.14197	364.00623	-1431.95618	62.89905	409.54218	-1656.33691	36.45588	448.79309	-1678.49133	59.47118	380.84326	-1659.27600	48.55232	348.26358	-1383.87048	1045.71277	296.00009	-1606.96594	994.61353	210.07550	-1559.63843	658.67151	142.53233	-1583.41711	620.73926	146.18950	-1616.26184	683.36224	131.89047	-1629.60315	642.79590	135.08398	-1671.14722	502.30109	175.75267	-1705.16638	521.35571	293.90070	-1478.18530	404.17267	201.16422	-1450.36511	369.19266	205.16441	-1520.81726	361.45767	190.33965	-1488.09399	331.68585	196.01433	-1354.43640	221.66458	248.41476	-1396.09485	219.17520	327.67395	-1304.67957	233.89626	307.17136	-1449.44995	82.85168	319.46017	-1479.98950	76.33268	270.09387	-1409.48462	88.59416	213.31375
865	7.20000	-1403.23010	1059.33655	395.86783	-1649.15906	1030.51440	466.37921	-1543.72046	699.76855	528.60443	-1553.89368	653.87659	518.94702	-1604.07349	707.33307	525.78369	-1604.81677	662.50726	513.28168	-1588.75757	540.48810	479.98669	-1595.59473	549.47919	341.58853	-1534.13843	381.75931	468.13004	-1529.07129	334.19244	469.81165	-1594.99255	370.10880	461.35883	-1581.46179	326.14993	462.65344	-1516.47107	90.91970	443.24771	-1500.32898	90.58858	363.84940	-1432.19080	63.81817	409.51633	-1656.45642	36.33478	448.84241	-1678.56421	59.05100	380.88510	-1659.21960	48.26517	348.39536	-1394.96606	1047.27344	295.50696	-1618.54456	997.83435	210.26620	-1577.38647	661.01917	142.13026	-1601.74097	623.78284	145.89359	-1633.47278	687.11237	131.67398	-1647.62109	646.59955	135.27544	-1690.71021	506.67429	176.76204	-1723.96191	526.84924	294.81161	-1502.04907	399.93292	199.97285	-1475.91504	363.66962	203.74748	-1546.91187	359.41489	189.97943	-1515.72095	327.92755	195.36584	-1386.53772	211.13547	246.26044	-1427.59314	211.46982	325.89020	-1335.39685	220.52162	304.81400	-1489.66260	79.30151	318.23804	-1520.47058	74.61271	268.73932	-1449.83337	81.89013	211.98015
866	7.20833	-1414.08911	1060.34692	395.26657	-1658.47388	1030.99805	465.53525	-1550.12231	700.46130	527.99872	-1559.76697	654.36658	518.33606	-1610.68677	707.34961	525.35443	-1610.90332	662.26160	512.73553	-1594.00159	540.79321	479.87964	-1600.58362	549.15442	341.24118	-1537.37573	382.16031	467.92612	-1531.91101	334.64838	469.62375	-1598.14575	370.04965	461.22034	-1584.19080	326.18927	462.54041	-1516.86182	91.12348	443.20544	-1500.72961	91.00230	363.72702	-1432.51111	64.64043	409.40930	-1656.61243	36.23274	448.90692	-1678.86121	58.75247	380.83817	-1659.49243	48.13058	348.34460	-1406.25525	1048.49158	294.89874	-1629.95984	1000.72565	210.34050	-1594.82520	663.16211	141.68021	-1619.52795	626.72540	145.43625	-1650.48145	690.59320	131.77998	-1665.37122	650.30267	135.54057	-1710.44824	510.68222	178.40672	-1742.06445	532.00677	295.73715	-1526.04480	395.21805	198.76875	-1501.74878	357.91901	202.11330	-1572.85413	357.03427	189.37372	-1545.37646	325.61639	195.33884	-1419.20654	200.37065	243.96017	-1459.90942	203.21266	323.88437	-1367.24622	206.68402	302.28326	-1530.77612	75.95503	316.71359	-1561.65417	72.84794	267.39755	-1490.73193	75.43198	210.12527
867	7.21667	-1424.79968	1061.23840	394.47485	-1668.55371	1031.69617	465.11343	-1557.96631	700.26868	526.76013	-1564.66138	654.82202	518.33179	-1617.38525	707.17657	524.93109	-1616.93457	662.25299	512.45795	-1598.18970	540.34167	479.37137	-1604.44043	548.64594	340.44492	-1540.65613	382.52063	467.63516	-1534.73218	335.10516	469.36469	-1601.36548	369.87628	460.97202	-1586.91406	326.14917	462.40912	-1517.11255	91.61072	443.29022	-1501.32458	91.54398	363.50558	-1432.91541	65.54816	409.36670	-1656.81433	36.14170	448.97467	-1679.17529	58.47635	380.81268	-1659.75623	48.02111	348.28018	-1417.45007	1049.58899	294.12125	-1641.69580	1003.19818	210.35905	-1612.49048	665.43030	141.41862	-1637.13525	629.60565	144.99420	-1667.24146	693.94696	132.00481	-1682.64563	653.85455	135.91782	-1729.23096	514.48901	179.71701	-1759.12708	536.82501	296.78885	-1550.10999	390.10876	197.63597	-1527.95093	351.51480	200.86166	-1598.95386	354.36108	188.73132	-1572.93396	321.11563	194.31357	-1452.80322	189.50035	241.49976	-1492.15979	194.87578	321.88916	-1400.13086	192.60201	299.67706	-1571.41833	72.33279	314.43045	-1602.48608	71.21094	265.27679	-1531.93335	69.46688	207.72432
868	7.22500	-1435.48413	1061.78625	393.55435	-1678.51917	1032.05750	464.78326	-1563.91772	701.14948	526.30994	-1570.99744	655.09326	517.55188	-1623.90198	706.83942	524.42950	-1623.08435	662.11060	511.92407	-1603.02905	540.10699	479.01984	-1610.51978	548.60840	340.67834	-1544.04468	382.92139	467.29440	-1537.64819	335.56027	469.16705	-1604.50830	369.62744	460.80084	-1589.68042	326.06305	462.15253	-1517.81226	91.91907	443.20370	-1502.06824	91.90118	363.21567	-1433.30859	66.42509	409.32242	-1656.98450	36.03179	449.00409	-1679.41162	58.24089	380.75235	-1659.85291	47.86377	348.26608	-1428.56323	1050.50586	293.10837	-1653.19580	1005.17139	210.27701	-1628.95374	668.04333	140.57944	-1654.36426	632.38373	144.67348	-1683.68005	697.16315	132.33809	-1699.63391	657.25842	136.39285	-1747.38794	518.06342	180.92671	-1775.44531	541.13739	297.74985	-1574.15027	384.74142	196.53346	-1553.93286	344.92715	199.33496	-1625.42175	351.63342	188.62843	-1599.84192	316.57343	192.93494	-1487.14563	178.73723	238.93089	-1525.67407	185.95982	319.54538	-1433.68665	178.44853	296.83240	-1611.89355	68.64279	311.32538	-1643.70496	70.03465	262.66599	-1573.56384	64.10488	204.77512
869	7.23333	-1446.14746	1062.12109	392.43390	-1688.51038	1032.18127	464.41638	-1570.59924	701.44147	525.60999	-1577.41516	655.26355	516.77106	-1630.75537	706.50836	523.89911	-1629.67102	661.50635	511.28482	-1608.28564	539.92456	478.62442	-1615.81445	548.21405	340.32202	-1547.54224	383.30029	467.01535	-1540.61487	336.00961	468.92084	-1607.94397	369.37897	460.58072	-1592.72266	325.99698	461.93866	-1518.17908	92.43922	443.33582	-1503.31030	92.32660	362.95700	-1433.68921	67.29367	409.36490	-1657.13916	35.83124	449.08429	-1679.40076	57.95813	380.86267	-1660.01819	47.73004	348.18204	-1439.79724	1051.01440	292.02979	-1664.93140	1006.63678	210.17229	-1645.13708	670.26501	139.96216	-1671.11816	634.94678	144.32281	-1699.74268	700.14563	132.75308	-1716.25854	660.44696	136.88333	-1765.20557	521.46869	182.32048	-1790.77637	545.02094	298.57053	-1598.05322	378.66345	195.05946	-1580.25928	338.07202	197.98613	-1651.35498	348.70245	187.80673	-1627.46143	311.91055	191.76369	-1522.32849	167.91460	236.16895	-1560.36206	176.75932	317.03653	-1468.69946	164.31085	294.28168	-1653.21106	65.42159	307.92996	-1684.84839	69.09144	259.39087	-1615.14380	59.46994	201.40318
870	7.24167	-1456.76135	1062.20251	391.15253	-1698.31506	1032.03589	464.16483	-1577.39050	701.50073	524.90680	-1583.77551	655.38281	516.14996	-1637.72656	705.84155	523.49170	-1635.96130	660.96777	510.86838	-1613.38562	539.51416	478.21164	-1620.30286	547.34351	339.42862	-1551.07727	383.55304	466.79019	-1543.67053	336.35904	468.61465	-1611.30127	369.03683	460.31161	-1595.63513	325.80313	461.76294	-1518.78455	92.81091	443.38867	-1503.30017	92.91442	362.69992	-1434.22412	67.94236	409.36966	-1657.27124	35.66293	449.16226	-1679.65723	57.64338	380.84518	-1660.33887	47.65998	348.18433	-1451.11670	1051.21057	290.56946	-1676.79346	1007.78754	209.84509	-1661.05054	671.91437	139.45131	-1687.42932	637.09076	144.10217	-1715.26379	702.38568	133.29387	-1732.29871	663.22284	137.37363	-1781.74365	524.47681	182.99190	-1805.07410	548.10913	299.10922	-1622.13025	372.77814	193.87428	-1606.67212	330.98282	196.46783	-1677.61719	345.50534	187.12335	-1655.26746	307.06174	190.43961	-1557.74365	157.75220	233.55777	-1594.79626	168.15320	314.47339	-1504.55322	150.53502	291.70749	-1694.99768	62.81855	304.46750	-1725.91431	68.64965	255.42024	-1656.54346	55.37109	197.57849
871	7.25000	-1467.19531	1062.12280	389.60645	-1708.04285	1031.47412	463.99927	-1584.19006	701.57831	524.36536	-1590.21143	655.32867	515.45007	-1644.53455	705.25854	523.07855	-1642.39514	660.34021	510.43549	-1618.77869	539.14862	477.87793	-1626.98743	546.96600	339.51065	-1554.92126	383.82822	466.45862	-1547.14612	336.50208	468.66830	-1614.72620	368.56647	460.00900	-1598.71777	325.55676	461.53757	-1519.36841	93.25161	443.41565	-1503.68518	93.40543	362.38171	-1434.58594	68.79491	409.32742	-1657.41687	35.52871	449.23163	-1680.41931	57.50769	380.80151	-1660.31592	47.39543	348.06882	-1462.24548	1051.18420	289.01434	-1688.51404	1008.40076	209.48195	-1676.48083	673.23022	138.90778	-1703.40442	638.80743	143.99986	-1730.69165	704.64490	133.70041	-1748.21851	665.42053	138.09521	-1797.79993	527.14197	183.82173	-1819.08813	550.67572	299.95972	-1646.12781	366.69040	192.61195	-1632.84021	323.59009	194.32458	-1702.62891	342.67944	185.70688	-1682.08569	302.84271	188.10440	-1593.68176	148.01614	230.88356	-1630.45447	159.74100	311.75510	-1541.42603	137.13629	289.11395	-1736.26660	60.32864	299.91653	-1766.92761	68.70966	250.97653	-1698.06946	52.07857	193.38998
